<?xml version="1.0" standalone="no"?>
<!DOCTYPE svg PUBLIC "-//W3C//DTD SVG 20010904//EN"
 "http://www.w3.org/TR/2001/REC-SVG-20010904/DTD/svg10.dtd">
<svg version="1.0" xmlns="http://www.w3.org/2000/svg"
 width="472.000000pt" height="393.000000pt" viewBox="0 0 472.000000 393.000000"
 preserveAspectRatio="xMidYMid meet">

<g transform="translate(0.000000,393.000000) scale(0.100000,-0.100000)"
fill="#000000" stroke="none">
<path d="M3270 3325 c0 -14 5 -25 10 -25 6 0 10 4 10 9 0 5 3 16 6 25 4 11 1
16 -10 16 -10 0 -16 -9 -16 -25z"/>
<path d="M1795 3330 c-16 -7 -17 -9 -3 -9 9 -1 20 4 23 9 7 11 7 11 -20 0z"/>
<path d="M3310 3300 c0 -6 7 -10 15 -10 8 0 15 2 15 4 0 2 -7 6 -15 10 -8 3
-15 1 -15 -4z"/>
<path d="M3460 3306 c0 -2 7 -7 16 -10 8 -3 12 -2 9 4 -6 10 -25 14 -25 6z"/>
<path d="M3248 3273 c7 -3 16 -2 19 1 4 3 -2 6 -13 5 -11 0 -14 -3 -6 -6z"/>
<path d="M3878 3115 c15 -33 32 -46 32 -25 0 6 -4 10 -10 10 -5 0 -10 6 -10
14 0 7 -6 19 -14 25 -11 9 -10 4 2 -24z"/>
<path d="M2837 3123 c-4 -3 -7 -11 -7 -17 0 -6 5 -5 12 2 6 6 9 14 7 17 -3 3
-9 2 -12 -2z"/>
<path d="M2895 3100 c-8 -13 5 -13 25 0 13 8 13 10 -2 10 -9 0 -20 -4 -23 -10z"/>
<path d="M2680 3075 c-8 -9 -8 -15 -2 -15 12 0 26 19 19 26 -2 2 -10 -2 -17
-11z"/>
<path d="M2857 3071 c5 -20 -27 -47 -42 -33 -5 4 -6 2 -2 -4 3 -5 21 -8 40 -6
28 3 34 7 30 23 -3 10 -11 23 -18 29 -11 9 -12 7 -8 -9z"/>
<path d="M2950 3080 c0 -5 5 -10 11 -10 5 0 7 5 4 10 -3 6 -8 10 -11 10 -2 0
-4 -4 -4 -10z"/>
<path d="M3940 3086 c0 -4 7 -17 15 -30 14 -21 14 -24 0 -29 -11 -5 -13 -12
-7 -29 9 -26 5 -58 -8 -58 -4 0 -10 -7 -13 -14 -4 -10 -1 -13 7 -10 19 7 38
53 30 76 -3 10 0 25 6 33 9 11 8 20 -9 41 -12 15 -21 24 -21 20z"/>
<path d="M2786 3064 c-5 -13 -4 -14 7 -6 8 7 18 8 22 4 5 -4 5 -1 1 6 -10 17
-23 15 -30 -4z"/>
<path d="M3020 3069 c0 -5 5 -7 10 -4 6 3 10 8 10 11 0 2 -4 4 -10 4 -5 0 -10
-5 -10 -11z"/>
<path d="M1249 3053 c-13 -16 -12 -17 4 -4 9 7 17 15 17 17 0 8 -8 3 -21 -13z"/>
<path d="M3231 3054 c0 -11 3 -14 6 -6 3 7 2 16 -1 19 -3 4 -6 -2 -5 -13z"/>
<path d="M2740 3050 c0 -5 5 -10 10 -10 6 0 10 5 10 10 0 6 -4 10 -10 10 -5 0
-10 -4 -10 -10z"/>
<path d="M2917 3053 c-4 -3 -7 -11 -7 -17 0 -6 5 -5 12 2 6 6 9 14 7 17 -3 3
-9 2 -12 -2z"/>
<path d="M2570 3033 c0 -14 2 -15 9 -4 5 8 18 12 30 8 12 -3 19 -1 15 4 -10
17 -54 10 -54 -8z"/>
<path d="M1210 3025 c0 -8 2 -15 4 -15 2 0 6 7 10 15 3 8 1 15 -4 15 -6 0 -10
-7 -10 -15z"/>
<path d="M2935 3030 c-3 -5 -1 -10 4 -10 6 0 11 5 11 10 0 6 -2 10 -4 10 -3 0
-8 -4 -11 -10z"/>
<path d="M3064 3028 c3 -21 16 -38 29 -37 9 0 9 2 0 6 -7 2 -13 11 -13 18 0 8
-4 16 -9 19 -5 4 -8 0 -7 -6z"/>
<path d="M2475 3019 c-4 -6 -5 -12 -2 -15 2 -3 7 2 10 11 7 17 1 20 -8 4z"/>
<path d="M3120 3016 c0 -17 16 -30 23 -19 3 5 -1 14 -9 21 -12 10 -14 10 -14
-2z"/>
<path d="M2310 3013 c-40 -7 -42 -18 -4 -18 20 0 34 5 34 13 0 6 -1 11 -2 11
-2 -1 -14 -4 -28 -6z"/>
<path d="M3180 3001 c0 -5 7 -12 16 -15 14 -5 15 -4 4 9 -14 17 -20 19 -20 6z"/>
<path d="M1140 2979 c-22 -18 -22 -19 -3 -10 12 6 25 16 28 21 9 15 3 12 -25
-11z"/>
<path d="M2230 2969 c0 -5 -4 -7 -10 -4 -5 3 -10 1 -10 -4 0 -13 3 -13 24 -5
18 7 22 24 6 24 -5 0 -10 -5 -10 -11z"/>
<path d="M2120 2953 c0 -5 6 -16 14 -25 9 -13 16 -14 24 -6 8 8 7 15 -6 24
-19 15 -32 18 -32 7z"/>
<path d="M3290 2945 c8 -11 29 -32 45 -47 28 -27 34 -28 113 -26 46 2 82 -1
82 -6 0 -14 29 27 30 41 0 20 -42 27 -56 9 -6 -9 -16 -16 -20 -15 -5 1 -16 0
-24 -4 -33 -12 -60 -15 -60 -5 0 5 -5 6 -11 3 -6 -4 -13 3 -16 14 -4 16 -10
20 -26 15 -16 -5 -19 -3 -14 10 4 10 1 16 -7 16 -8 0 -23 3 -33 7 -16 6 -17 5
-3 -12z"/>
<path d="M1080 2930 c-9 -6 -10 -10 -3 -10 6 0 15 5 18 10 8 12 4 12 -15 0z"/>
<path d="M1970 2875 c0 -28 15 -34 24 -9 10 25 7 34 -9 34 -9 0 -15 -9 -15
-25z"/>
<path d="M2050 2890 c-8 -5 -10 -10 -5 -10 6 0 17 5 25 10 8 5 11 10 5 10 -5
0 -17 -5 -25 -10z"/>
<path d="M3623 2886 c-6 -8 -9 -17 -6 -20 12 -11 41 -6 46 8 11 27 -19 35 -40
12z"/>
<path d="M3667 2863 c-16 -18 -16 -22 -2 -33 12 -10 16 -9 21 3 3 9 4 23 2 33
-3 14 -5 14 -21 -3z"/>
<path d="M3879 2873 c0 -5 -2 -15 -4 -24 -1 -9 3 -16 9 -16 8 0 11 10 8 24 -4
22 -11 31 -13 16z"/>
<path d="M1893 2855 c-5 -8 -20 -16 -33 -17 -14 -2 -28 -11 -32 -21 -6 -13
-14 -17 -29 -12 -16 5 -20 3 -17 -6 3 -8 -2 -20 -11 -27 -9 -7 3 -3 27 9 23
11 45 25 48 30 3 5 17 9 31 9 26 0 77 33 66 44 -12 11 -42 6 -50 -9z"/>
<path d="M3948 2859 c11 -14 9 -16 -13 -11 -20 3 -25 0 -25 -16 0 -12 -4 -24
-10 -27 -21 -13 -10 -24 15 -15 14 5 32 7 40 4 22 -9 20 50 -2 67 -16 12 -17
12 -5 -2z"/>
<path d="M3873 2813 c-15 -5 -17 -23 -4 -23 5 0 11 7 15 15 3 8 4 15 3 14 -1
0 -8 -3 -14 -6z"/>
<path d="M3772 2783 c2 -11 11 -17 21 -15 9 2 17 -2 17 -8 0 -15 36 -12 50 5
10 12 9 16 -4 21 -9 3 -28 4 -41 2 -14 -3 -25 -1 -25 3 0 5 -5 9 -11 9 -6 0
-9 -8 -7 -17z"/>
<path d="M3675 2780 c3 -5 8 -10 11 -10 2 0 4 5 4 10 0 6 -5 10 -11 10 -5 0
-7 -4 -4 -10z"/>
<path d="M3655 2763 c3 -7 1 -13 -6 -13 -18 0 -2 -13 21 -17 10 -1 22 2 26 9
5 7 3 8 -5 4 -7 -5 -19 0 -27 10 -9 11 -13 13 -9 7z"/>
<path d="M3710 2761 c0 -6 4 -13 10 -16 6 -3 7 1 4 9 -7 18 -14 21 -14 7z"/>
<path d="M1696 2718 c3 -5 10 -6 15 -3 13 9 11 12 -6 12 -8 0 -12 -4 -9 -9z"/>
<path d="M1680 2690 c0 -5 5 -10 11 -10 5 0 7 5 4 10 -3 6 -8 10 -11 10 -2 0
-4 -4 -4 -10z"/>
<path d="M1710 2689 c0 -5 5 -7 10 -4 6 3 10 8 10 11 0 2 -4 4 -10 4 -5 0 -10
-5 -10 -11z"/>
<path d="M1620 2679 c0 -5 5 -7 11 -4 6 4 9 1 8 -6 -2 -8 2 -24 9 -36 10 -18
9 -23 -5 -32 -18 -10 -27 -61 -10 -61 5 0 6 7 3 16 -5 13 -1 15 17 10 16 -4
24 -1 24 8 0 8 -6 12 -15 9 -12 -5 -12 -3 -1 15 7 12 16 18 19 14 3 -4 18 -5
34 -2 28 5 28 6 11 20 -15 12 -17 12 -10 1 5 -10 4 -12 -4 -7 -9 6 -9 11 -1
21 8 9 6 14 -5 19 -9 3 -13 2 -10 -4 10 -17 -4 -11 -25 10 -21 21 -50 27 -50
9z"/>
<path d="M1600 2645 c-7 -9 -8 -15 -2 -15 5 0 12 7 16 15 3 8 4 15 2 15 -2 0
-9 -7 -16 -15z"/>
<path d="M1525 2620 c-3 -5 -2 -10 4 -10 5 0 13 5 16 10 3 6 2 10 -4 10 -5 0
-13 -4 -16 -10z"/>
<path d="M1617 2623 c-4 -3 -7 -11 -7 -17 0 -6 5 -5 12 2 6 6 9 14 7 17 -3 3
-9 2 -12 -2z"/>
<path d="M785 2592 c-32 -7 -41 -22 -9 -16 16 3 31 7 33 10 8 7 -3 10 -24 6z"/>
<path d="M1574 2571 c0 -11 4 -17 8 -15 4 3 8 12 8 20 0 8 -4 14 -8 14 -4 0
-8 -9 -8 -19z"/>
<path d="M1510 2542 c0 -6 -8 -9 -17 -6 -15 5 -16 4 -3 -5 16 -11 40 3 27 16
-4 3 -7 1 -7 -5z"/>
<path d="M1494 2465 c24 -18 39 -20 34 -2 -3 6 -15 13 -29 15 -23 2 -23 2 -5
-13z"/>
<path d="M1470 2451 c0 -6 5 -13 10 -16 6 -3 10 1 10 9 0 9 -4 16 -10 16 -5 0
-10 -4 -10 -9z"/>
<path d="M1430 2420 c0 -13 11 -13 30 0 12 8 11 10 -7 10 -13 0 -23 -4 -23
-10z"/>
<path d="M665 2380 c4 -6 11 -8 16 -5 14 9 11 15 -7 15 -8 0 -12 -5 -9 -10z"/>
<path d="M1090 2378 c0 -9 5 -20 10 -23 13 -8 13 5 0 25 -8 13 -10 13 -10 -2z"/>
<path d="M1176 2201 c-10 -18 -13 -41 -10 -60 4 -21 3 -31 -5 -31 -7 0 -9 -4
-6 -10 15 -24 35 -9 35 25 0 19 5 35 10 35 13 0 13 57 0 65 -5 3 -16 -8 -24
-24z"/>
<path d="M1281 2163 c0 -12 2 -13 6 -5 4 10 8 10 21 0 15 -12 16 -11 3 5 -7 9
-17 17 -22 17 -5 0 -9 -8 -8 -17z"/>
<path d="M1025 2160 c-3 -4 2 -11 11 -14 22 -8 34 -7 34 3 0 12 -39 21 -45 11z"/>
<path d="M1342 2146 c7 -8 15 -12 17 -11 5 6 -10 25 -20 25 -5 0 -4 -6 3 -14z"/>
<path d="M1380 2071 c0 -5 5 -13 10 -16 6 -3 10 -2 10 4 0 5 -4 13 -10 16 -5
3 -10 2 -10 -4z"/>
<path d="M1250 1975 c0 -6 8 -11 19 -11 10 0 17 5 14 11 -2 7 -10 12 -18 12
-8 0 -15 -5 -15 -12z"/>
<path d="M1142 1944 c-19 -41 -6 -71 32 -76 l33 -4 -13 32 c-7 17 -10 41 -7
52 8 33 -31 29 -45 -4z"/>
<path d="M1204 1934 c-18 -14 -18 -14 6 -3 31 14 36 19 24 19 -6 0 -19 -7 -30
-16z"/>
<path d="M550 1870 c0 -5 5 -10 11 -10 5 0 7 5 4 10 -3 6 -8 10 -11 10 -2 0
-4 -4 -4 -10z"/>
<path d="M1240 1839 c-13 -9 -13 -10 2 -5 12 3 18 -2 21 -17 4 -18 5 -17 6 6
1 29 -5 33 -29 16z"/>
<path d="M490 1804 c0 -6 5 -15 12 -22 8 -8 8 -15 -1 -26 -7 -8 -8 -16 -4 -19
5 -3 13 5 19 18 10 20 8 27 -7 41 -11 9 -19 13 -19 8z"/>
<path d="M500 1661 c0 -6 4 -13 10 -16 6 -3 7 1 4 9 -7 18 -14 21 -14 7z"/>
<path d="M504 1589 c-4 -7 -3 -9 4 -5 5 3 13 0 15 -6 4 -9 6 -10 6 -1 1 17
-16 25 -25 12z"/>
<path d="M500 1553 c0 -6 8 -17 18 -24 16 -13 16 -13 2 6 -8 11 -16 22 -17 24
-2 2 -3 0 -3 -6z"/>
<path d="M625 1496 c-14 -10 -15 -15 -6 -21 8 -4 19 -1 28 8 20 19 1 30 -22
13z"/>
<path d="M540 1420 c0 -5 5 -10 10 -10 6 0 10 5 10 10 0 6 -4 10 -10 10 -5 0
-10 -4 -10 -10z"/>
<path d="M672 1395 c0 -16 2 -22 5 -12 2 9 2 23 0 30 -3 6 -5 -1 -5 -18z"/>
<path d="M1595 1250 c3 -5 8 -10 11 -10 2 0 4 5 4 10 0 6 -5 10 -11 10 -5 0
-7 -4 -4 -10z"/>
<path d="M1649 1221 c7 -12 17 -18 27 -14 21 8 12 27 -15 31 -20 3 -21 1 -12
-17z"/>
<path d="M807 1079 c7 -7 15 -10 18 -7 3 3 -2 9 -12 12 -14 6 -15 5 -6 -5z"/>
<path d="M850 1050 c-9 -6 -10 -10 -3 -10 6 0 15 5 18 10 8 12 4 12 -15 0z"/>
<path d="M3155 1030 c-3 -5 -1 -10 4 -10 6 0 11 5 11 10 0 6 -2 10 -4 10 -3 0
-8 -4 -11 -10z"/>
<path d="M856 988 c3 -4 9 -8 15 -8 5 0 9 4 9 8 0 5 -7 9 -15 9 -8 0 -12 -4
-9 -9z"/>
<path d="M2140 990 c0 -5 5 -10 10 -10 6 0 10 5 10 10 0 6 -4 10 -10 10 -5 0
-10 -4 -10 -10z"/>
<path d="M1020 876 c0 -2 7 -6 15 -10 8 -3 15 -1 15 4 0 6 -7 10 -15 10 -8 0
-15 -2 -15 -4z"/>
<path d="M3477 868 c2 -5 10 -8 18 -8 8 0 16 3 18 8 3 4 -5 7 -18 7 -13 0 -21
-3 -18 -7z"/>
<path d="M2475 840 c-3 -5 -1 -10 4 -10 6 0 11 5 11 10 0 6 -2 10 -4 10 -3 0
-8 -4 -11 -10z"/>
<path d="M2500 815 c0 -8 7 -15 15 -15 9 0 12 6 9 15 -4 8 -10 15 -15 15 -5 0
-9 -7 -9 -15z"/>
<path d="M1362 720 c0 -14 2 -19 5 -12 2 6 2 18 0 25 -3 6 -5 1 -5 -13z"/>
<path d="M1386 694 c-5 -13 -4 -14 7 -6 8 7 17 9 20 5 4 -3 7 -1 7 5 0 18 -27
14 -34 -4z"/>
<path d="M1581 622 c-1 -8 -6 -10 -13 -6 -10 5 -10 4 -1 -6 15 -16 28 -8 20
12 -4 11 -6 11 -6 0z"/>
<path d="M2018 602 c-10 -2 -18 -8 -18 -13 0 -13 27 -11 35 2 9 13 4 16 -17
11z"/>
<path d="M2189 498 c4 -28 6 -29 9 -9 2 13 0 27 -5 32 -6 6 -7 -3 -4 -23z"/>
<path d="M2166 495 c4 -8 8 -15 10 -15 2 0 4 7 4 15 0 8 -4 15 -10 15 -5 0 -7
-7 -4 -15z"/>
<path d="M2256 448 c3 -4 9 -8 15 -8 5 0 9 4 9 8 0 5 -7 9 -15 9 -8 0 -12 -4
-9 -9z"/>
</g>
</svg>
